<svg width="40" height="41" viewBox="0 0 40 41" fill="none" xmlns="http://www.w3.org/2000/svg">
<path d="M13 14L17.2528 15.2151C19.0483 15.7281 20.9517 15.7281 22.7472 15.2151L27 14L25.7849 18.2528C25.2719 20.0483 25.2719 21.9517 25.7849 23.7472L27 28L22.7472 26.7849C20.9517 26.2719 19.0483 26.2719 17.2528 26.7849L13 28L14.2151 23.7472C14.7281 21.9517 14.7281 20.0483 14.2151 18.2528L13 14Z" stroke="#126DE2" stroke-width="3"/>
<line x1="1.93934" y1="17.9393" x2="17.9393" y2="1.93934" stroke="#126DE2" stroke-width="3"/>
<line x1="21.9393" y1="39.9393" x2="37.9393" y2="23.9393" stroke="#126DE2" stroke-width="3"/>
<line x1="2.1107" y1="22.9919" x2="17.3184" y2="39.7468" stroke="#126DE2" stroke-width="3"/>
<line x1="23.1107" y1="1.99186" x2="38.3184" y2="18.7468" stroke="#126DE2" stroke-width="3"/>
<circle cx="9.5" cy="10.5" r="3.5" fill="white" stroke="#126DE2" stroke-width="2"/>
<circle cx="30.5" cy="31.5" r="3.5" fill="white" stroke="#126DE2" stroke-width="2"/>
<circle cx="30.5" cy="10.5" r="3.5" fill="white" stroke="#126DE2" stroke-width="2"/>
<circle cx="9.5" cy="31.5" r="3.5" fill="white" stroke="#126DE2" stroke-width="2"/>
</svg>
